<?xml version="1.0" standalone="no"?>
<!DOCTYPE svg PUBLIC "-//W3C//DTD SVG 1.1//EN" "http://www.w3.org/Graphics/SVG/1.1/DTD/svg11.dtd" >
<svg xmlns="http://www.w3.org/2000/svg">
<metadata></metadata>
<defs>
<font id="bentonsansregular" horiz-adv-x="1206" >
<font-face units-per-em="2048" ascent="1638" descent="-410" />
<missing-glyph horiz-adv-x="585" />
<glyph horiz-adv-x="2048" />
<glyph horiz-adv-x="2048" />
<glyph unicode="&#xd;" horiz-adv-x="2048" />
<glyph unicode=" "  horiz-adv-x="585" />
<glyph unicode="&#x09;" horiz-adv-x="585" />
<glyph unicode="&#xa0;" horiz-adv-x="585" />
<glyph unicode="!" horiz-adv-x="768" d="M139 1516h510l-98 -1010h-313zM182 0v348h424v-348h-424z" />
<glyph unicode="&#x22;" horiz-adv-x="987" d="M115 1350v166h336v-166l-35 -402h-266zM537 1350v166h335v-166l-34 -402h-267z" />
<glyph unicode="#" horiz-adv-x="1607" d="M37 356v293h280l45 217h-237v293h299l76 357h360l-74 -357h162l76 357h360l-75 -357h262v-293h-324l-45 -217h281v-293h-342l-74 -356h-360l73 356h-162l-75 -356h-361l74 356h-219zM678 649h164l45 217h-162z" />
<glyph unicode="$" horiz-adv-x="1427" d="M74 319l270 173q85 -110 124 -147q67 -64 144 -85v352q-86 20 -150.5 41t-133 58t-112.5 83t-72.5 116t-28.5 157q0 204 131 328t354 143v139h234v-145q109 -16 197 -58.5t143 -94t108 -124.5l-266 -194q-44 63 -88.5 105.5t-102.5 66.5v-326q122 -27 207.5 -61 t156.5 -86.5t106.5 -130.5t35.5 -183q0 -70 -16 -131.5t-53.5 -119t-94 -100.5t-141.5 -73.5t-192 -41.5v-170h-234v170q-185 20 -308.5 106t-217.5 233zM483 1104q0 -57 30 -89.5t99 -56.5v295q-64 -13 -96.5 -52.5t-32.5 -96.5zM825 254q73 15 105.5 53t32.5 101 q0 55 -31 89t-107 60v-303z" />
<glyph unicode="%" horiz-adv-x="2385" d="M74 1030q0 233 117.5 372.5t320.5 139.5q201 0 318.5 -139.5t117.5 -372.5q0 -235 -117.5 -374.5t-318.5 -139.5q-203 0 -320.5 139.5t-117.5 374.5zM399 1030q0 -134 26 -200t87 -66t85 65t24 201q0 133 -24.5 196.5t-84.5 63.5q-62 0 -87.5 -63.5t-25.5 -196.5zM567 0 l906 1516h344l-906 -1516h-344zM1438 494q0 233 117.5 372.5t320.5 139.5q201 0 318.5 -139.5t117.5 -372.5q0 -235 -117.5 -374.5t-318.5 -139.5q-203 0 -320.5 139.5t-117.5 374.5zM1763 494q0 -134 26 -200.5t87 -66.5q60 0 84.5 65.5t24.5 201.5q0 133 -24.5 196.5 t-84.5 63.5q-62 0 -87.5 -63.5t-25.5 -196.5z" />
<glyph unicode="&#x26;" horiz-adv-x="1540" d="M14 375q0 92 27 165t79 125.5t106.5 87.5t131.5 70q-92 186 -92 328q0 78 27.5 147.5t81.5 125t144.5 88t205.5 32.5q110 0 194 -29.5t133 -80t73 -111t24 -127.5q0 -68 -19 -126.5t-48.5 -100.5t-76 -81.5t-89.5 -66t-101 -55.5q35 -46 72 -90q77 -91 127 -139 q52 113 69 251h340q-36 -256 -139 -440q118 -45 268 -45v-323q-310 0 -518 100q-178 -109 -424 -109q-288 0 -442 108t-154 296zM424 436q0 -89 54 -139.5t134 -50.5q82 0 152 33q-76 71 -172 192q-10 13 -92 121q-76 -66 -76 -156zM635 1174q0 -91 55 -201q129 81 129 209 q0 42 -20.5 74t-63.5 32q-41 0 -70.5 -27t-29.5 -87z" />
<glyph unicode="'" horiz-adv-x="565" d="M115 1350v166h336v-166l-35 -402h-266z" />
<glyph unicode="(" horiz-adv-x="831" d="M76 594q0 305 133 549.5t395 464.5l189 -197q-297 -359 -297 -817q0 -472 309 -832l-201 -182q-262 220 -395 464.5t-133 549.5z" />
<glyph unicode=")" horiz-adv-x="831" d="M27 -238q309 360 309 832q0 458 -297 817l188 197q173 -146 287 -294.5t178 -330.5t64 -389t-64 -389t-178 -330.5t-287 -294.5z" />
<glyph unicode="*" horiz-adv-x="1040" d="M41 938v225l324 -22l-185 266l201 119l139 -293l139 293l203 -119l-184 -266l321 22v-225l-321 23l184 -265l-200 -118l-142 290l-139 -290l-201 118l182 265z" />
<glyph unicode="+" horiz-adv-x="1331" d="M139 578v315h367v389h319v-389h367v-315h-367v-390h-319v390h-367z" />
<glyph unicode="," horiz-adv-x="587" d="M82 0v369h424v-314l-176 -315h-189l103 260h-162z" />
<glyph unicode="-" horiz-adv-x="731" d="M82 512v262h567v-262h-567z" />
<glyph unicode="." horiz-adv-x="587" d="M82 0v369h424v-369h-424z" />
<glyph unicode="/" horiz-adv-x="1388" d="M47 0l881 1516h413l-880 -1516h-414z" />
<glyph unicode="0" horiz-adv-x="1460" d="M70 758q0 236 78 413t228 275t355 98t355 -98t227.5 -275t77.5 -413t-77.5 -413.5t-227.5 -275.5t-355 -98t-355 98t-228 275.5t-78 413.5zM477 758q0 -469 254 -469q252 0 252 469q0 461 -252 461q-129 0 -191.5 -113t-62.5 -348z" />
<glyph unicode="1" horiz-adv-x="960" d="M43 0v315h268v838q-133 -70 -264 -70v334q171 6 272 99h390v-1201h231v-315h-897z" />
<glyph unicode="2" horiz-adv-x="1280" d="M35 0v33q0 54 3 94.5t13 93.5t27.5 96.5t49.5 96t77 101t110.5 102.5t149.5 108q28 18 74 47t65.5 41.5t52.5 35t46 34t34 30.5t28 33l17 34t12.5 40t2.5 45q0 66 -41 102.5t-113 36.5q-76 0 -163 -53.5t-152 -144.5l-285 208q115 159 261 244.5t351 85.5 q256 0 397.5 -119.5t141.5 -330.5q0 -54 -4.5 -93t-22 -91.5t-50 -97.5t-92.5 -99t-144 -107q-94 -59 -141 -90.5t-104 -73.5t-82 -72t-28 -55h678v-315h-1169z" />
<glyph unicode="3" horiz-adv-x="1302" d="M8 221l246 230q69 -75 166.5 -116.5t183.5 -41.5q221 0 221 168q0 103 -78 140.5t-235 37.5h-84v295h86q75 0 129.5 10t83 24.5t44.5 36.5t20 39.5t4 40.5q0 62 -40.5 93.5t-138.5 31.5q-192 0 -335 -123l-215 259q107 94 269 145t331 51q255 0 393.5 -98t138.5 -293 q0 -130 -75 -223.5t-216 -124.5q165 -25 255.5 -127t90.5 -242q0 -221 -171 -342t-457 -121q-202 0 -352 61.5t-265 188.5z" />
<glyph unicode="4" horiz-adv-x="1441" d="M37 266v297l690 953h442v-932h256v-318h-256v-266h-395v266h-737zM455 584h319v440h-4z" />
<glyph unicode="5" horiz-adv-x="1269" d="M12 143l197 275q79 -56 179.5 -90.5t191.5 -34.5q254 0 254 215q0 109 -56.5 169t-173.5 60q-64 0 -130 -31t-122 -94l-256 78l62 826h968l-20 -304h-639l-23 -256q36 31 112 53.5t181 22.5q248 0 376 -141t128 -371q0 -249 -170 -399t-463 -150q-349 0 -596 172z" />
<glyph unicode="6" horiz-adv-x="1374" d="M70 731q0 181 43.5 325t113 233.5t163 148.5t186.5 82.5t192 23.5q170 0 277 -35.5t194 -95.5l-170 -274q-70 44 -133.5 64t-147.5 20q-127 0 -211.5 -86t-105.5 -258q167 108 356 108q78 0 147 -15t134 -50.5t112 -89.5t75 -138t28 -190q0 -244 -166 -388.5t-436 -144.5 q-298 0 -474.5 200.5t-176.5 559.5zM469 606q12 -330 268 -330q98 0 150.5 64t52.5 145q0 205 -201 205q-158 0 -270 -84z" />
<glyph unicode="7" horiz-adv-x="1095" d="M-8 1192v324h1114v-297l-559 -1219h-414l557 1192h-698z" />
<glyph unicode="8" horiz-adv-x="1331" d="M29 401q0 128 89.5 229t219.5 156q-123 67 -181.5 148t-58.5 219q0 59 22 115.5t68 106.5t112 87.5t160.5 59.5t205.5 22q143 0 254.5 -33.5t178 -89.5t100.5 -124.5t34 -143.5q0 -113 -63 -210t-171 -146q57 -25 97.5 -48.5t82 -58t67 -73.5t41.5 -94t16 -122 q0 -207 -168 -318.5t-469 -111.5t-469 111.5t-168 318.5zM440 424q0 -76 59 -128t167 -52t166.5 52t58.5 128q0 69 -56.5 116.5t-199.5 102.5q-195 -100 -195 -219zM494 1118q0 -70 51 -113t151 -77q74 40 108 84t34 102q0 25 -8.5 49t-27 47.5t-53 37.5t-81.5 14 q-91 0 -132.5 -42t-41.5 -102z" />
<glyph unicode="9" horiz-adv-x="1374" d="M51 1012q0 244 166 388t436 144q298 0 475 -200.5t177 -559.5q0 -181 -43.5 -325t-113 -233.5t-163.5 -148.5t-187 -82.5t-192 -23.5q-170 0 -277 35.5t-194 95.5l170 265q70 -44 133.5 -64t147.5 -20q126 0 211 90.5t106 263.5q-168 -109 -356 -109q-78 0 -147.5 15 t-134 50.5t-111.5 90t-75 138.5t-28 190zM434 1030q0 -205 201 -205q158 0 270 84q-6 162 -71.5 241t-196.5 79q-99 0 -151 -59.5t-52 -139.5z" />
<glyph unicode=":" horiz-adv-x="624" d="M100 0v369h424v-369h-424zM100 729v369h424v-369h-424z" />
<glyph unicode=";" horiz-adv-x="624" d="M100 0v369h424v-303l-182 -326h-188l102 260h-156zM100 729v369h424v-369h-424z" />
<glyph unicode="&#x3c;" horiz-adv-x="1331" d="M131 559v209l1083 481v-325l-655 -260l655 -261v-325z" />
<glyph unicode="=" horiz-adv-x="1331" d="M147 301v279h1035v-279h-1035zM147 768v279h1035v-279h-1035z" />
<glyph unicode="&#x3e;" horiz-adv-x="1331" d="M131 78v325l655 261l-655 260v325l1083 -481v-209z" />
<glyph unicode="?" horiz-adv-x="1263" d="M55 1290q106 113 266.5 183.5t362.5 70.5q240 0 369 -104t129 -273q0 -68 -18 -123.5t-51.5 -96t-73 -69.5t-91.5 -55q-29 -14 -50.5 -25t-39.5 -24.5t-31 -21.5t-23.5 -23.5t-17 -22.5t-11 -27.5t-6.5 -29t-3.5 -36t-1.5 -40v-48.5v-25h-334q-8 61 -8 153q0 199 229 314 q72 37 102.5 73t30.5 93q0 41 -37.5 67.5t-107.5 26.5q-85 0 -185.5 -50.5t-160.5 -115.5zM385 0v348h424v-348h-424z" />
<glyph unicode="@" horiz-adv-x="1777" d="M82 754q0 166 58 311.5t162.5 251t257 166.5t333.5 61t332.5 -57.5t254 -159t159.5 -242.5t57 -307q0 -210 -110 -339.5t-316 -129.5q-124 0 -189.5 48.5t-95.5 142.5q-133 -156 -315 -156q-122 0 -191 81.5t-69 227.5q0 127 31 232t83.5 173t120 105t141.5 37 q91 0 141.5 -26.5t84.5 -75.5l14 86h303l-106 -613q-11 -60 9 -84t85 -24q96 0 153.5 82.5t57.5 222.5q0 275 -172 443.5t-465 168.5q-291 0 -460 -173.5t-169 -452.5q0 -185 71 -328t212 -226t334 -83q231 0 372 104l82 -115q-87 -66 -208.5 -100.5t-260.5 -34.5 q-145 0 -270 38.5t-218.5 109t-160 167t-100 216t-33.5 252.5zM715 686q0 -59 19 -87t81 -28q28 0 61 18.5t54 41.5l47 270q-27 29 -49 40t-56 11q-41 0 -72.5 -23.5t-49.5 -62.5t-26.5 -84.5t-8.5 -95.5z" />
<glyph unicode="A" horiz-adv-x="1495" d="M20 0l537 1522h381l537 -1522h-414l-92 283h-477l-99 -283h-373zM588 573h289l-140 420h-4z" />
<glyph unicode="B" horiz-adv-x="1482" d="M141 0v1516h637q60 0 110 -3t109 -12.5t104.5 -26t89.5 -45t73 -66.5t47 -94t18 -126q0 -153 -80 -237.5t-207 -108.5v-4q58 -10 104.5 -27t88.5 -46t70 -69t44.5 -98.5t16.5 -132.5q0 -95 -34.5 -170t-89.5 -121t-130.5 -76t-151 -41.5t-157.5 -11.5h-662zM543 307h205 q219 0 219 164q0 79 -54.5 118.5t-169.5 39.5h-200v-322zM543 911h194q203 0 203 146q0 145 -199 145h-198v-291z" />
<glyph unicode="C" horiz-adv-x="1517" d="M70 758q0 162 37 294t102 222.5t155 152t194 89.5t222 28q121 0 219.5 -24.5t167 -67t120.5 -105t83 -132t51 -154.5l-387 -115q-17 61 -35.5 103t-48 80.5t-72.5 57.5t-100 19q-150 0 -224.5 -116t-74.5 -332q0 -215 77 -337t226 -122q115 0 175.5 69.5t97.5 219.5 l387 -86q-23 -96 -57.5 -173.5t-88.5 -145.5t-125 -114t-170.5 -72t-220.5 -26q-122 0 -227.5 28t-195 89.5t-153 152.5t-99 222.5t-35.5 294.5z" />
<glyph unicode="D" horiz-adv-x="1542" d="M141 0v1516h498q141 0 260.5 -22t227.5 -76t183 -138t119 -214t44 -298q0 -174 -45 -308.5t-120.5 -220t-184 -140.5t-226.5 -77t-258 -22h-498zM549 330h113q116 0 193 24t123.5 78.5t65.5 133.5t19 198q0 218 -89.5 315t-316.5 97h-108v-846z" />
<glyph unicode="E" horiz-adv-x="1320" d="M141 0v1516h1082v-340h-672v-246h479v-320h-479v-280h706v-330h-1116z" />
<glyph unicode="F" horiz-adv-x="1218" d="M141 0v1516h1047v-340h-637v-304h444v-319h-444v-553h-410z" />
<glyph unicode="G" horiz-adv-x="1589" d="M70 764q0 360 188.5 570t523.5 210q91 0 167 -13t151 -46.5t133.5 -88t107.5 -142t80 -203.5l-374 -105q-43 141 -108 200.5t-159 59.5q-20 0 -37.5 -1.5t-50 -10.5t-58.5 -25t-56 -49t-50 -77t-33.5 -114.5t-13.5 -158.5q0 -121 23.5 -211t56.5 -138.5t79.5 -77.5 t82.5 -36.5t76 -7.5q96 0 164.5 48.5t101.5 133.5h-221v299h610v-780h-321v201h-5q-8 -30 -37 -67.5t-74.5 -75t-117 -62.5t-151.5 -25q-142 0 -255.5 39t-192 108.5t-130.5 169t-76 218t-24 258.5z" />
<glyph unicode="H" horiz-adv-x="1605" d="M141 0v1516h410v-564h504v564h409v-1516h-409v612h-504v-612h-410z" />
<glyph unicode="I" horiz-adv-x="716" d="M154 0v1516h409v-1516h-409z" />
<glyph unicode="J" horiz-adv-x="1126" d="M16 117l207 276q120 -98 228 -98q81 0 120 56.5t39 180.5v984h410v-1055q0 -87 -17.5 -159t-57.5 -134.5t-102.5 -105.5t-155.5 -67t-212 -24q-159 0 -262.5 38t-196.5 108z" />
<glyph unicode="K" horiz-adv-x="1511" d="M141 0v1516h410v-549l418 549h475l-510 -598l555 -918h-463l-358 606l-117 -135v-471h-410z" />
<glyph unicode="L" horiz-adv-x="1218" d="M141 0v1516h410v-1186h637v-330h-1047z" />
<glyph unicode="M" horiz-adv-x="1890" d="M141 0v1516h543l266 -1029h4l240 1029h555v-1516h-391v938h-4q-29 -181 -82 -369l-160 -569h-360l-156 569q-52 181 -86 389h-4v-958h-365z" />
<glyph unicode="N" horiz-adv-x="1619" d="M141 0v1516h404l555 -850h4v850h375v-1516h-379l-580 848h-4v-848h-375z" />
<glyph unicode="O" horiz-adv-x="1628" d="M70 758q0 161 42.5 294t114 223t168 151.5t202 89.5t218.5 28q112 0 217.5 -28t202 -89.5t168 -151.5t114 -223t42.5 -294t-42.5 -294.5t-114 -223t-168 -151.5t-202 -90t-217.5 -28q-113 0 -218.5 28t-202 90t-168 152t-114 223t-42.5 294zM479 758q0 -212 88.5 -335.5 t247.5 -123.5q158 0 246 123.5t88 335.5q0 210 -87.5 329t-246.5 119q-160 0 -248 -118.5t-88 -329.5z" />
<glyph unicode="P" horiz-adv-x="1413" d="M141 0v1516h568q76 0 139 -5t132 -19t123 -37.5t104.5 -63.5t84 -93t53 -129t19.5 -170q0 -93 -21 -169.5t-56.5 -129.5t-87.5 -92.5t-107 -63t-123.5 -37.5t-129 -19t-130.5 -5h-162v-483h-406zM547 795h176q134 0 188 50t54 144t-54 144.5t-188 50.5h-176v-389z" />
<glyph unicode="Q" horiz-adv-x="1628" d="M66 758q0 161 42.5 294t114 223t168 151.5t202 89.5t218.5 28q112 0 217.5 -28t201.5 -89.5t167.5 -151.5t114 -223t42.5 -294q0 -135 -30 -250t-81 -199.5t-123 -150t-152.5 -105.5t-172.5 -61q8 -14 18 -26t19.5 -21t25 -15.5t26 -11t31.5 -7.5t32 -4.5t36.5 -2 t37 -0.5h41h41.5h104v-320h-311q-228 0 -368 117.5t-148 302.5q-108 31 -198.5 91t-162.5 150.5t-112.5 222t-40.5 290.5zM475 758q0 -212 88.5 -335.5t247.5 -123.5q158 0 246 123.5t88 335.5q0 210 -87.5 329t-246.5 119q-160 0 -248 -118.5t-88 -329.5z" />
<glyph unicode="R" horiz-adv-x="1472" d="M141 0v1516h592q150 0 262.5 -26.5t196 -83.5t126 -153t42.5 -231q0 -176 -74 -283t-225 -159l321 -580h-434l-293 526h-112v-526h-402zM543 838h176q128 0 185 40t57 134t-57 133t-185 39h-176v-346z" />
<glyph unicode="S" horiz-adv-x="1452" d="M55 334l303 188q67 -108 173 -168.5t225 -60.5q100 0 159.5 32t59.5 99q0 28 -14.5 51t-36.5 39.5t-60 31.5t-72.5 25t-86.5 23q-191 49 -257 72q-217 79 -285 225q-36 76 -36 174q0 227 157.5 353t420.5 126q390 0 634 -297l-274 -225q-66 80 -167 135t-196 55 q-176 0 -176 -110q0 -36 19.5 -63.5t60.5 -48t82 -33.5t107 -29q207 -49 302 -91q234 -102 270 -302q7 -39 7 -82q0 -75 -21 -143t-69.5 -131t-120.5 -108.5t-181 -72.5t-245 -27q-456 0 -682 363z" />
<glyph unicode="T" horiz-adv-x="1351" d="M35 1176v340h1282v-340h-436v-1176h-410v1176h-436z" />
<glyph unicode="U" horiz-adv-x="1492" d="M111 608v908h409v-906q0 -158 55 -230.5t177 -72.5t175.5 72.5t53.5 230.5v906h401v-908q0 -631 -634 -631q-637 0 -637 631z" />
<glyph unicode="V" horiz-adv-x="1462" d="M20 1516h414l303 -986h4l320 986h381l-516 -1522h-389z" />
<glyph unicode="W" horiz-adv-x="1984" d="M29 1516h411l129 -596q48 -187 66 -314h4q16 121 61 312l125 598h371l135 -601q5 -21 15.5 -60.5t15 -58t11.5 -50.5t13 -65t13 -75h4q6 51 13.5 94t12 66.5t15 69t16.5 75.5l121 605h375l-393 -1516h-342l-207 948h-4l-230 -948h-348z" />
<glyph unicode="X" horiz-adv-x="1540" d="M66 0l469 797l-437 719h467l228 -400l208 400h420l-422 -723l476 -793h-457l-268 463l-252 -463h-432z" />
<glyph unicode="Y" horiz-adv-x="1476" d="M4 1516h422l313 -537l316 537h418l-531 -883v-633h-410v633z" />
<glyph unicode="Z" horiz-adv-x="1382" d="M51 0v281l742 895h-693v340h1213v-291l-721 -895h721v-330h-1262z" />
<glyph unicode="[" horiz-adv-x="954" d="M127 -410v1926h784v-279h-376v-1368h376v-279h-784z" />
<glyph unicode="\" horiz-adv-x="1306" d="M6 1516h414l880 -1516h-413z" />
<glyph unicode="]" horiz-adv-x="954" d="M43 -131h377v1368h-377v279h784v-1926h-784v279z" />
<glyph unicode="^" horiz-adv-x="1167" d="M186 1223l265 360h266l264 -360h-227l-172 131l-168 -131h-228z" />
<glyph unicode="_" horiz-adv-x="1024" d="M0 -76h1024v-274h-1024v274z" />
<glyph unicode="`" horiz-adv-x="1024" d="M160 1583h389l190 -371h-268z" />
<glyph unicode="a" d="M35 295q0 187 171.5 294t506.5 122v14q0 92 -121 92q-172 0 -338 -119l-166 230q211 190 567 190q239 0 346 -112.5t107 -348.5v-391q0 -192 31 -266h-402q-24 77 -24 160q-140 -176 -365 -176q-61 0 -116 19t-99.5 55.5t-71 97.5t-26.5 139zM430 362q0 -38 25 -57.5 t65 -19.5q126 0 193 63v156q-283 -9 -283 -142z" />
<glyph unicode="b" horiz-adv-x="1302" d="M111 0v1516h405v-588q128 190 326 190q190 0 299.5 -146t109.5 -423q0 -276 -110.5 -420.5t-302.5 -144.5q-205 0 -322 135v-119h-405zM516 354q42 -38 79.5 -53.5t88.5 -15.5q162 0 162 262q0 74 -12.5 123.5t-50.5 82.5t-103 33q-44 0 -90 -24.5t-74 -54.5v-353z" />
<glyph unicode="c" horiz-adv-x="1155" d="M51 547q0 131 37.5 234t96 165t137.5 102t153.5 55t153.5 15q94 0 170.5 -19t128 -50t92 -77.5t65 -94t45.5 -107.5l-339 -106q-25 94 -64.5 128.5t-101.5 34.5q-168 0 -168 -282q0 -65 7 -113t24 -89.5t50.5 -63t82.5 -21.5q132 0 178 176l336 -112 q-26 -68 -64.5 -124.5t-99 -108.5t-152.5 -82t-205 -30q-83 0 -158 15.5t-151 56t-130.5 102.5t-89 164t-34.5 232z" />
<glyph unicode="d" horiz-adv-x="1302" d="M51 537q0 278 111.5 429.5t302.5 151.5q112 0 188.5 -35t132.5 -116v549h406v-1250q0 -193 33 -266h-414q-11 16 -18 67t-7 97q-121 -180 -325 -180q-192 0 -301 139t-109 414zM457 539q0 -55 7.5 -97.5t25 -79.5t51 -57t82.5 -20q43 0 88.5 24.5t74.5 55.5v352 q-42 38 -79.5 53.5t-88.5 15.5q-87 0 -124 -62t-37 -185z" />
<glyph unicode="e" d="M51 547q0 126 39 227.5t100 164t140 104.5t153 58.5t146 16.5q528 0 528 -624v-62h-702q14 -101 68 -139.5t151 -38.5q78 0 163.5 30.5t151.5 69.5l146 -245q-204 -132 -492 -132q-95 0 -177.5 16t-160.5 57t-133 104t-88 163.5t-33 229.5zM459 664h340q-12 94 -54 133 t-118 39q-134 0 -168 -172z" />
<glyph unicode="f" horiz-adv-x="890" d="M37 807v291h178v41q0 44 3 79t13 77t27 73t48 62.5t73 51t104 32t140 12.5q57 0 144 -7t103 -12v-276q-36 12 -106 12q-27 0 -43 -1t-37.5 -8t-33.5 -19t-20.5 -35.5t-8.5 -57.5v-24h237v-291h-237v-807h-406v807h-178z" />
<glyph unicode="g" horiz-adv-x="1300" d="M-20 -172q0 123 172 209q-66 50 -66 127q0 71 47.5 135t122.5 113q-92 53 -139 134.5t-47 180.5q0 82 33 152t95.5 124t162 84.5t225.5 30.5q255 0 389 -121q57 51 140 83.5t155 35.5v-301q-94 0 -180 -18q4 -36 4 -70q0 -82 -31.5 -152t-93 -124t-160 -84.5 t-223.5 -30.5q-78 0 -164 14q-16 -26 -16 -41q0 -14 7 -22.5t24 -13t31.5 -5.5t43.5 -2l135 -4q317 -9 449.5 -84t132.5 -241q0 -115 -91 -195t-240 -116t-345 -36q-158 0 -270 16t-177.5 48t-95.5 74.5t-30 99.5zM346 -96q0 -65 63 -92t214 -27q116 0 186 20.5t70 61.5 q0 30 -14.5 44t-77.5 24.5t-197 15.5l-156 6q-38 0 -76 6q-12 -35 -12 -59zM449 711q0 -70 37 -115t106 -45t106 45t37 115t-37 114.5t-106 44.5t-106 -44.5t-37 -114.5z" />
<glyph unicode="h" horiz-adv-x="1296" d="M111 0v1516h405v-588q20 32 49.5 62t73.5 60.5t107 49t135 18.5q141 0 228 -75.5t87 -241.5v-801h-405v668q0 59 -21.5 88.5t-71.5 29.5q-87 0 -182 -77v-709h-405z" />
<glyph unicode="i" horiz-adv-x="647" d="M121 0v1098h405v-1098h-405zM121 1204v312h405v-312h-405z" />
<glyph unicode="j" horiz-adv-x="647" d="M-129 -133q36 -12 106 -12q76 0 110 37t34 124v1082h405v-1172q0 -38 -3 -68t-13 -67t-27 -65.5t-47.5 -56.5t-72.5 -46t-104 -29.5t-140 -11.5q-57 0 -144.5 7t-103.5 12v266zM121 1204v312h405v-312h-405z" />
<glyph unicode="k" horiz-adv-x="1245" d="M111 0v1516h405v-760l268 342h430l-356 -418l369 -680h-416l-203 385l-92 -109v-276h-405z" />
<glyph unicode="l" horiz-adv-x="647" d="M121 0v1516h405v-1516h-405z" />
<glyph unicode="m" horiz-adv-x="1923" d="M111 0v1098h405v-170q19 31 49 62t72.5 61t100.5 48.5t120 18.5q250 0 299 -190q19 31 49 62t72.5 61t100.5 48.5t120 18.5q160 0 242 -92.5t82 -245.5v-780h-406v668q0 63 -16 90.5t-68 27.5q-43 0 -80 -19t-84 -58v-709h-405v668q0 63 -16 90.5t-68 27.5q-43 0 -80 -19 t-84 -58v-709h-405z" />
<glyph unicode="n" horiz-adv-x="1296" d="M113 0v1098h405v-170q20 32 49.5 62t73.5 60.5t107 49t135 18.5q141 0 228 -75.5t87 -241.5v-801h-405v668q0 59 -21.5 88.5t-71.5 29.5q-87 0 -182 -77v-709h-405z" />
<glyph unicode="o" horiz-adv-x="1273" d="M51 547q0 132 36 234.5t93 164.5t136.5 102t157 55t163.5 15q85 0 163 -15t157 -55t136.5 -102t93.5 -164.5t36 -234.5q0 -130 -36 -232t-93.5 -164t-136.5 -102.5t-157 -56t-163 -15.5t-163 15.5t-157 56t-136.5 102.5t-93.5 164t-36 232zM457 545q0 -287 180 -287 t180 287q0 282 -180 282t-180 -282z" />
<glyph unicode="p" horiz-adv-x="1302" d="M111 -410v1508h405v-170q128 190 326 190q190 0 299.5 -146t109.5 -423q0 -276 -110.5 -420.5t-302.5 -144.5q-205 0 -322 135v-529h-405zM516 354q42 -38 79.5 -53.5t88.5 -15.5q162 0 162 262q0 74 -12.5 123.5t-50.5 82.5t-103 33q-44 0 -90 -24.5t-74 -54.5v-353z " />
<glyph unicode="q" horiz-adv-x="1302" d="M51 537q0 278 111.5 429.5t302.5 151.5q112 0 188.5 -35t132.5 -116v131h406v-1508h-406v564q-128 -170 -325 -170q-192 0 -301 139t-109 414zM457 539q0 -55 7.5 -97.5t25 -79.5t51 -57t82.5 -20q43 0 88.5 24.5t74.5 55.5v352q-42 38 -79.5 53.5t-88.5 15.5 q-87 0 -124 -62t-37 -185z" />
<glyph unicode="r" horiz-adv-x="890" d="M111 0v1098h405v-170h2q117 190 342 190h4v-358q-64 8 -102 8q-123 0 -246 -100v-668h-405z" />
<glyph unicode="s" horiz-adv-x="1116" d="M29 135l149 227q75 -60 185.5 -96.5t207.5 -36.5q57 0 94 18t37 54q0 41 -38 60t-132 32q-40 6 -65 10t-66 13t-68.5 18t-64 24.5t-60.5 33t-50 43.5t-41 56.5t-25 70.5t-10 86q0 177 126.5 273.5t321.5 96.5q171 0 288 -37t224 -114l-149 -224q-189 111 -324 111 q-112 0 -112 -70q0 -36 39.5 -54.5t128.5 -29.5q40 -5 65 -9t66.5 -12t69 -16.5t64 -23t61 -31t50.5 -41t41 -52.5t25 -65.5t10 -80.5q0 -85 -28.5 -152.5t-75.5 -111.5t-113 -73.5t-137 -42t-150 -12.5q-327 0 -544 158z" />
<glyph unicode="t" horiz-adv-x="925" d="M25 807v291h178v368h405v-368h281v-291h-281v-387q0 -88 29 -117t115 -29q67 0 106 13v-283q-16 -5 -103.5 -11.5t-144.5 -6.5q-79 0 -140 8.5t-104 22t-73 38t-47.5 50t-27 64.5t-12.5 74.5t-3 86.5v477h-178z" />
<glyph unicode="u" horiz-adv-x="1296" d="M100 295v803h406v-680q0 -59 21.5 -89t70.5 -30q86 0 182 78v721h406v-1098h-406v168q-20 -32 -49 -62.5t-73 -61t-107 -49t-135 -18.5q-141 0 -228.5 76t-87.5 242z" />
<glyph unicode="v" horiz-adv-x="1130" d="M-27 1098h416l193 -654h4l194 654h377l-387 -1098h-410z" />
<glyph unicode="w" horiz-adv-x="1609" d="M-16 1098h405l72 -334q33 -138 59 -320h4q26 158 68 330l74 324h307l80 -328q30 -111 69 -326h4q29 170 68 322l78 332h354l-313 -1098h-375l-133 575h-4l-129 -575h-375z" />
<glyph unicode="x" horiz-adv-x="1153" d="M6 0l369 565l-342 533h422l151 -254l135 254h406l-348 -535l362 -563h-422l-168 281l-159 -281h-406z" />
<glyph unicode="y" horiz-adv-x="1175" d="M-29 -375l84 312q128 -33 232 -33q81 0 104 63l10 27l-417 1104h415l203 -627h4l203 627h391l-459 -1209q-58 -152 -151.5 -230.5t-253.5 -78.5q-208 0 -365 45z" />
<glyph unicode="z" horiz-adv-x="1105" d="M49 0v203l475 604h-442v291h944v-211l-477 -604h522v-283h-1022z" />
<glyph unicode="{" horiz-adv-x="954" d="M43 412v282q61 0 101 10.5t69.5 37t43 75t13.5 123.5v262q0 137 81.5 225.5t219.5 88.5h357v-279h-90q-160 0 -160 -164v-192q0 -145 -43.5 -221t-130.5 -105v-4q87 -29 130.5 -105t43.5 -221v-192q0 -164 160 -164h90v-279h-357q-138 0 -219.5 88.5t-81.5 225.5v262 q0 75 -13.5 123.5t-43 75t-69.5 37t-101 10.5z" />
<glyph unicode="|" horiz-adv-x="864" d="M231 -410v1926h402v-1926h-402z" />
<glyph unicode="}" horiz-adv-x="954" d="M27 -131h90q159 0 159 164v233q0 74 11 123.5t35.5 81t53.5 48.5t75 32v4q-46 15 -75 32t-53.5 48.5t-35.5 81t-11 123.5v233q0 164 -159 164h-90v279h397q138 0 199 -68t61 -205v-303q0 -75 13.5 -123.5t43 -75t69.5 -37t101 -10.5v-282q-61 0 -101 -10.5t-69.5 -37 t-43 -75t-13.5 -123.5v-303q0 -137 -61 -205t-199 -68h-397v279z" />
<glyph unicode="~" horiz-adv-x="1085" d="M113 731q0 189 71.5 278t198.5 89q55 0 101.5 -18t72 -39.5t57.5 -39.5t62 -18q84 0 84 111h213q0 -189 -71.5 -278t-199.5 -89q-55 0 -101.5 18t-72 39.5t-57 39.5t-61.5 18q-84 0 -84 -111h-213z" />
<glyph unicode="&#xa1;" horiz-adv-x="768" d="M119 0l98 1010h313l99 -1010h-510zM162 1167v349h424v-349h-424z" />
<glyph unicode="&#xa2;" horiz-adv-x="1169" d="M51 547q0 125 37 225.5t95.5 163.5t136.5 105.5t154 59.5t153 17q29 0 43 -2l57 191h197l-70 -224q200 -71 285 -313l-310 -106q-19 77 -73 124l-164 -536q8 -2 26 -2q62 0 126.5 44t93.5 140l305 -112q-20 -53 -48.5 -99.5t-74.5 -92.5t-102 -79t-135 -53.5t-171 -20.5 q-36 0 -90 7l-76 -248h-196l92 299q-132 62 -211.5 188.5t-79.5 323.5zM422 545q0 -117 27 -185l145 471q-80 -11 -126 -84t-46 -202z" />
<glyph unicode="&#xa3;" horiz-adv-x="1478" d="M10 227q0 70 27.5 125.5t73 89t100 51t113.5 17.5q105 0 223 -64q-5 97 -70 213h-291v205h164q-71 128 -71 244q0 185 135.5 310.5t351.5 125.5q81 0 149 -12.5t117.5 -33t91 -53.5t68.5 -66t50.5 -78.5t37 -84t27.5 -88.5l-349 -79q-8 33 -15.5 56t-21.5 49.5t-31 42.5 t-43.5 27t-60.5 11q-54 0 -86 -33t-32 -92q0 -15 1.5 -29t5.5 -29.5t6.5 -26t10.5 -28t11 -25t14.5 -28t14 -25.5t16.5 -28t16 -27h369v-205h-271q29 -92 29 -196q0 -97 -49 -193q55 -20 102 -20q77 0 115 38.5t41 153.5h342q-4 -77 -14 -136.5t-38 -125.5t-71.5 -109 t-119 -71.5t-177.5 -28.5q-201 0 -360 103q-154 -103 -332 -103q-88 0 -157.5 24.5t-116 84t-46.5 147.5zM256 238q0 -32 21 -53t59 -21q84 0 141 63q-33 28 -51.5 42t-44.5 26t-49 12q-35 0 -55.5 -19t-20.5 -50z" />
<glyph unicode="&#xa4;" horiz-adv-x="1525" d="M43 475v207h201q-2 25 -2 76v37h-199v204h219q35 182 125 306t215 181.5t281 57.5q123 0 219 -27.5t163.5 -82t113.5 -125t79 -166.5l-342 -129q-38 112 -86.5 163.5t-138.5 51.5q-181 0 -234 -230h271v-204h-291v-37v-76h291v-207h-266q24 -97 79 -146.5t154 -49.5 q76 0 130 56t93 183l350 -110q-142 -437 -575 -437q-235 0 -399.5 125t-223.5 379h-227z" />
<glyph unicode="&#xa5;" horiz-adv-x="1456" d="M18 1516h422l289 -496l291 496h418l-502 -834h356v-205h-360v-112h360v-207h-360v-158h-410v158h-356v207h356v112h-356v205h350z" />
<glyph unicode="&#xa6;" horiz-adv-x="864" d="M231 -410v838h402v-838h-402zM231 678v838h402v-838h-402z" />
<glyph unicode="&#xa7;" horiz-adv-x="1236" d="M106 586q0 99 49 179.5t119 131.5q-110 107 -110 260q0 168 122.5 277.5t336.5 109.5q394 0 499 -287l-280 -133q-30 69 -83 114.5t-118 45.5q-119 0 -119 -106q0 -14 4 -27t14 -26t20 -23.5t28 -23.5t31.5 -22t38.5 -22.5t40 -22t44 -23.5t44 -23q52 -27 87.5 -47.5 t88 -61t85 -81t57 -100.5t24.5 -126q0 -100 -49.5 -181t-120.5 -132q103 -106 103 -259q0 -169 -118 -278t-331 -109q-97 0 -176 18t-129 45.5t-88.5 67.5t-59 76t-36.5 80l280 133q69 -160 191 -160q63 0 85.5 29t22.5 78q0 28 -17 54t-52 51.5t-69.5 45.5t-89.5 49 q-17 8 -25 13q-39 21 -60.5 33t-63 39t-66.5 48.5t-57.5 56t-51 68.5t-31.5 78.5t-13 92.5zM428 674q0 -71 42.5 -116t186.5 -124q15 -9 54 -30.5t59 -32.5q37 47 37 90q0 71 -42.5 115.5t-186.5 123.5q-23 13 -63 35.5t-50 28.5q-37 -47 -37 -90z" />
<glyph unicode="&#xa8;" horiz-adv-x="1105" d="M152 1198v358h327v-358h-327zM616 1198v358h328v-358h-328z" />
<glyph unicode="&#xa9;" horiz-adv-x="1777" d="M102 754q0 165 61.5 311.5t166.5 251.5t251.5 166t311.5 61q220 0 399 -102t281 -281t102 -399q0 -165 -61 -311.5t-166 -251.5t-251.5 -166.5t-311.5 -61.5t-310 60t-249 164t-164 249t-60 310zM287 762q0 -269 171.5 -446t434.5 -177q262 0 430 173t168 442 t-171.5 445.5t-434.5 176.5q-262 0 -430 -172.5t-168 -441.5zM514 758q0 215 99.5 328.5t275.5 113.5q147 0 234 -73t110 -197l-219 -58q-15 60 -41 90.5t-80 30.5q-65 0 -99 -62t-34 -173t33 -170.5t98 -59.5q54 0 83.5 34.5t41.5 105.5l225 -62q-19 -67 -45 -116.5 t-67.5 -90t-103.5 -61.5t-144 -21q-167 0 -267 114t-100 327z" />
<glyph unicode="&#xaa;" horiz-adv-x="942" d="M72 934q0 140 120 219.5t353 89.5v10q0 64 -84 64q-121 0 -236 -82l-116 160q148 133 397 133q167 0 242 -78.5t75 -243.5v-274q0 -136 21 -187h-281q-18 59 -18 113q-97 -127 -254 -127q-90 0 -154.5 53t-64.5 150zM348 995q0 -27 17.5 -41t46.5 -14q84 0 133 49v109 q-197 -6 -197 -103z" />
<glyph unicode="&#xab;" horiz-adv-x="1390" d="M31 549l356 549h381l-338 -549l338 -549h-381zM616 549l357 549h381l-338 -549l338 -549h-381z" />
<glyph unicode="&#xac;" horiz-adv-x="1556" d="M20 545v420l269 -62l-10 103l-52 -5v285l23 -2l-2 21h284l-4 -50l101 -10l-62 271h420l-61 -271l100 10l-4 50h285l-2 -21l22 2v-285l-51 5l-10 -103l270 62v-420l-270 61l10 -98l51 4v-285l-22 2l2 -24h-285l6 53l-102 10l61 -268h-420l62 268l-103 -10l6 -53h-284l2 24 l-23 -2v285l52 -4l10 98zM494 606l12 -121l123 -12v133h-135zM494 903h135v137l-123 -12zM926 473l123 12l12 121h-135v-133zM926 903h135l-12 125l-123 12v-137z" />
<glyph unicode="&#xad;" horiz-adv-x="731" d="M82 512v262h567v-262h-567z" />
<glyph unicode="&#xae;" horiz-adv-x="1777" d="M102 754q0 165 61.5 311.5t166.5 251.5t251.5 166t311.5 61q220 0 399 -102t281 -281t102 -399q0 -165 -61 -311.5t-166 -251.5t-251.5 -166.5t-311.5 -61.5t-310 60t-249 164t-164 249t-60 310zM287 762q0 -269 171.5 -446t434.5 -177q262 0 430 173t168 442 t-171.5 445.5t-434.5 176.5q-262 0 -430 -172.5t-168 -441.5zM567 350v850h346q164 0 254 -73t90 -222q0 -176 -141 -252l150 -303h-258l-129 271h-68v-271h-244zM811 795h88q119 0 119 96q0 94 -119 94h-88v-190z" />
<glyph unicode="&#xaf;" horiz-adv-x="1024" d="M152 1235v278h720v-278h-720z" />
<glyph unicode="&#xb0;" horiz-adv-x="860" d="M80 1194q0 150 99.5 248t250.5 98q152 0 251 -96t99 -246q0 -151 -99.5 -249.5t-250.5 -98.5t-250.5 97t-99.5 247zM285 1196q0 -75 39.5 -119.5t105.5 -44.5t105.5 44.5t39.5 119.5t-39.5 118.5t-105.5 43.5t-105.5 -43.5t-39.5 -118.5z" />
<glyph unicode="&#xb1;" horiz-adv-x="2101" d="M37 807v291h178v41q0 60 7.5 110.5t31 103.5t61 89.5t103.5 60t153 23.5q62 0 136 -7t92 -12v-272q-24 8 -86 8q-51 0 -71.5 -30.5t-20.5 -90.5v-24h274v41q0 60 7.5 110.5t31 103.5t61 89.5t103.5 60t153 23.5q56 0 133.5 -7t94.5 -12v-272q-24 8 -86 8q-51 0 -72 -30.5 t-21 -90.5v-24h187v-291h-187v-807h-405v807h-274v-807h-406v807h-178zM1575 0v1516h405v-1516h-405z" />
<glyph unicode="&#xb2;" horiz-adv-x="1005" d="M98 1290q85 125 183.5 185.5t236.5 60.5q175 0 270 -83t95 -228q0 -91 -51 -173t-187 -155q-126 -66 -158 -119h402v-250h-785v60q0 64 7.5 109.5t33.5 104.5t84.5 117.5t151.5 118.5q19 12 49 30.5t43.5 27.5t33.5 22.5t28 23t18 22t13 26t3 29.5q0 53 -65 53 q-39 0 -95.5 -35.5t-99.5 -103.5z" />
<glyph unicode="&#xb3;" horiz-adv-x="1005" d="M72 715l186 168q94 -117 205 -117q68 0 94.5 22t26.5 60q0 48 -37 67t-121 19h-90v217h92q79 0 108 18.5t29 53.5q0 53 -76 53q-119 0 -223 -90l-162 198q172 152 414 152q173 0 267 -70t94 -204q0 -68 -33.5 -122.5t-106.5 -80.5q90 -28 132 -86.5t42 -134.5 q0 -162 -111.5 -244t-307.5 -82q-133 0 -243 52.5t-179 150.5z" />
<glyph unicode="&#xb4;" horiz-adv-x="1024" d="M285 1212l190 371h389l-311 -371h-268z" />
<glyph unicode="&#xb5;" horiz-adv-x="1306" d="M111 -410v1508h405v-670q0 -59 21.5 -89t70.5 -30q87 0 183 78v711h405v-1098h-405v168q-72 -116 -207 -164q-30 -12 -68 -18v-396h-405z" />
<glyph unicode="&#xb6;" horiz-adv-x="1320" d="M74 1065q0 194 125 322.5t344 128.5h712v-1926h-262v1629h-159v-1629h-263v1031q-240 4 -368.5 120t-128.5 324z" />
<glyph unicode="&#xb7;" horiz-adv-x="608" d="M82 520v369h444v-369h-444z" />
<glyph unicode="&#xb8;" horiz-adv-x="1024" d="M225 -342l68 113q44 -29 105.5 -45.5t117.5 -16.5q37 0 59.5 15t22.5 43q0 49 -57 49q-39 0 -78 -31l-92 45l53 170h156l-21 -86q50 31 141 31q62 0 106 -39.5t44 -106.5q0 -97 -86.5 -158t-214.5 -61q-205 0 -324 78z" />
<glyph unicode="&#xb9;" horiz-adv-x="862" d="M131 522v250h162v442q-68 -22 -160 -22v260q74 3 114 16t72 45h293v-741h140v-250h-621z" />
<glyph unicode="&#xba;" horiz-adv-x="985" d="M82 1130q0 92 25.5 163.5t65.5 115.5t96 72t110.5 38.5t114.5 10.5q59 0 113.5 -10.5t109.5 -38.5t95 -72t65.5 -115.5t25.5 -163.5q0 -91 -25 -162t-65.5 -115t-95.5 -72t-109.5 -39t-113.5 -11q-60 0 -115 11t-110 39t-95.5 72t-66 115t-25.5 162zM367 1128 q0 -200 127 -200q124 0 124 200q0 199 -124 199q-127 0 -127 -199z" />
<glyph unicode="&#xbb;" horiz-adv-x="1390" d="M37 0l338 549l-338 549h381l356 -549l-356 -549h-381zM623 0l338 549l-338 549h381l356 -549l-356 -549h-381z" />
<glyph unicode="&#xbc;" horiz-adv-x="2271" d="M131 522v250h162v442q-68 -22 -160 -22v260q74 3 114 16t72 45h293v-741h140v-250h-621zM522 0l905 1516h345l-906 -1516h-344zM1286 193v198l434 600h326v-559h154v-239h-154v-193h-317v193h-443zM1604 432h131v191z" />
<glyph unicode="&#xbd;" horiz-adv-x="2332" d="M131 522v250h162v442q-68 -22 -160 -22v260q74 3 114 16t72 45h293v-741h140v-250h-621zM522 0l905 1516h345l-906 -1516h-344zM1432 762q85 125 183 185.5t236 60.5q175 0 270 -83.5t95 -228.5q0 -91 -51 -172.5t-187 -154.5q-125 -65 -157 -119h401v-250h-784v59 q0 51 3.5 87t19.5 85t44.5 90.5t81 91t127.5 97.5q21 13 56.5 35t49 31t34.5 25t28.5 27t14 27t6.5 35q0 53 -66 53q-39 0 -95.5 -35.5t-99.5 -103.5z" />
<glyph unicode="&#xbe;" horiz-adv-x="2361" d="M72 715l186 168q94 -117 205 -117q68 0 94.5 22t26.5 60q0 48 -37 67t-121 19h-90v217h92q79 0 108 18.5t29 53.5q0 53 -76 53q-119 0 -223 -90l-162 198q172 152 414 152q173 0 267 -70t94 -204q0 -68 -33.5 -122.5t-106.5 -80.5q90 -28 132 -86.5t42 -134.5 q0 -162 -111.5 -244t-307.5 -82q-133 0 -243 52.5t-179 150.5zM612 0l906 1516h344l-906 -1516h-344zM1376 193v198l434 600h326v-559h154v-239h-154v-193h-317v193h-443zM1694 432h131v191z" />
<glyph unicode="&#xbf;" horiz-adv-x="1263" d="M82 348q0 131 61.5 210.5t171.5 133.5q29 14 50.5 25t40 24.5t31.5 22t23.5 24t17 23t11 27.5t6.5 29.5t3.5 36.5t1.5 40.5v49.5v22h334q8 -61 8 -154q0 -197 -230 -313q-72 -37 -102.5 -73t-30.5 -93q0 -41 38 -67.5t108 -26.5q85 0 185.5 50.5t160.5 115.5l237 -230 q-106 -113 -266 -183.5t-362 -70.5q-240 0 -369 104t-129 273zM455 1167v349h424v-349h-424z" />
<glyph unicode="&#xc0;" horiz-adv-x="1495" d="M20 0l537 1522h381l537 -1522h-414l-92 283h-477l-99 -283h-373zM334 1972h389l190 -371h-268zM588 573h289l-140 420h-4z" />
<glyph unicode="&#xc1;" horiz-adv-x="1495" d="M20 0l537 1522h381l537 -1522h-414l-92 283h-477l-99 -283h-373zM582 1601l190 371h389l-311 -371h-268zM588 573h289l-140 420h-4z" />
<glyph unicode="&#xc2;" horiz-adv-x="1495" d="M20 0l537 1522h381l537 -1522h-414l-92 283h-477l-99 -283h-373zM350 1612l265 360h266l264 -360h-227l-172 131l-168 -131h-228zM588 573h289l-140 420h-4z" />
<glyph unicode="&#xc3;" horiz-adv-x="1495" d="M20 0l537 1522h381l537 -1522h-414l-92 283h-477l-99 -283h-373zM318 1581q0 189 71.5 278t198.5 89q55 0 101.5 -18t72 -39.5t57.5 -39.5t62 -18q84 0 84 110h213q0 -189 -71.5 -277.5t-199.5 -88.5q-55 0 -101.5 18t-72 39.5t-57 39.5t-61.5 18q-84 0 -84 -111h-213z M588 573h289l-140 420h-4z" />
<glyph unicode="&#xc4;" horiz-adv-x="1495" d="M20 0l537 1522h381l537 -1522h-414l-92 283h-477l-99 -283h-373zM347 1587v358h327v-358h-327zM588 573h289l-140 420h-4zM811 1587v358h328v-358h-328z" />
<glyph unicode="&#xc5;" horiz-adv-x="1495" d="M20 0l525 1487q-37 60 -37 131q0 101 68.5 169t171.5 68t171 -68t68 -169q0 -76 -37 -131l525 -1487h-414l-92 283h-477l-99 -283h-373zM588 573h289l-140 420h-4zM659 1618q0 -41 25 -66.5t64 -25.5t63.5 25.5t24.5 66.5q0 38 -25 64t-63 26t-63.5 -26t-25.5 -64z" />
<glyph unicode="&#xc6;" horiz-adv-x="2265" d="M20 0l863 1516h1280v-340h-672v-246h479v-320h-479v-280h707v-330h-1113v406h-428l-225 -406h-412zM823 702h262v467h-2z" />
<glyph unicode="&#xc7;" horiz-adv-x="1517" d="M70 758q0 162 37 294t102 222.5t155 152t194 89.5t222 28q121 0 219.5 -24.5t167 -67t120.5 -105t83 -132t51 -154.5l-387 -115q-17 61 -35.5 103t-48 80.5t-72.5 57.5t-100 19q-150 0 -224.5 -116t-74.5 -332q0 -215 77 -337t226 -122q115 0 175.5 69.5t97.5 219.5 l387 -86q-28 -117 -74.5 -207.5t-119 -163.5t-181 -114t-248.5 -46l-14 -57q50 31 141 31q62 0 106 -39.5t44 -106.5q0 -97 -86.5 -158t-214.5 -61q-205 0 -324 78l68 113q44 -29 105.5 -45.5t117.5 -16.5q37 0 59.5 15t22.5 43q0 49 -58 49q-38 0 -77 -31l-93 45l48 147 q-131 17 -237.5 71t-187.5 147.5t-125 236.5t-44 326z" />
<glyph unicode="&#xc8;" horiz-adv-x="1320" d="M141 0v1516h1082v-340h-672v-246h479v-320h-479v-280h706v-330h-1116zM307 1972h389l190 -371h-268z" />
<glyph unicode="&#xc9;" horiz-adv-x="1320" d="M141 0v1516h1082v-340h-672v-246h479v-320h-479v-280h706v-330h-1116zM453 1601l190 371h389l-311 -371h-268z" />
<glyph unicode="&#xca;" horiz-adv-x="1320" d="M141 0v1516h1082v-340h-672v-246h479v-320h-479v-280h706v-330h-1116zM282 1612l265 360h266l264 -360h-227l-172 131l-168 -131h-228z" />
<glyph unicode="&#xcb;" horiz-adv-x="1320" d="M141 0v1516h1082v-340h-672v-246h479v-320h-479v-280h706v-330h-1116zM287 1587v358h327v-358h-327zM751 1587v358h328v-358h-328z" />
<glyph unicode="&#xcc;" horiz-adv-x="716" d="M-55 1972h389l190 -371h-268zM154 0v1516h409v-1516h-409z" />
<glyph unicode="&#xcd;" horiz-adv-x="716" d="M154 0v1516h409v-1516h-409zM193 1601l190 371h389l-311 -371h-268z" />
<glyph unicode="&#xce;" horiz-adv-x="716" d="M-39 1612l265 360h266l264 -360h-227l-172 131l-168 -131h-228zM154 0v1516h409v-1516h-409z" />
<glyph unicode="&#xcf;" horiz-adv-x="716" d="M-43 1587v358h327v-358h-327zM154 0v1516h409v-1516h-409zM421 1587v358h328v-358h-328z" />
<glyph unicode="&#xd0;" horiz-adv-x="1542" d="M20 614v299h121v603h498q142 0 260.5 -22t227 -76.5t183.5 -139t119 -217t44 -303.5q0 -169 -44.5 -301t-120.5 -217t-184.5 -140t-227 -77.5t-257.5 -22.5h-498v614h-121zM547 330h115q116 0 193 24t123.5 78.5t65.5 133.5t19 198q0 218 -89.5 315t-316.5 97h-110v-263 h301v-299h-301v-284z" />
<glyph unicode="&#xd1;" horiz-adv-x="1619" d="M141 0v1516h404l555 -850h4v850h375v-1516h-379l-580 848h-4v-848h-375zM383 1581q0 189 71.5 278t198.5 89q55 0 101.5 -18t72 -39.5t57.5 -39.5t62 -18q84 0 84 110h213q0 -189 -71.5 -277.5t-199.5 -88.5q-55 0 -101.5 18t-72 39.5t-57 39.5t-61.5 18q-84 0 -84 -111 h-213z" />
<glyph unicode="&#xd2;" horiz-adv-x="1628" d="M70 758q0 161 42.5 294t114 223t168 151.5t202 89.5t218.5 28q112 0 217.5 -28t202 -89.5t168 -151.5t114 -223t42.5 -294t-42.5 -294.5t-114 -223t-168 -151.5t-202 -90t-217.5 -28q-113 0 -218.5 28t-202 90t-168 152t-114 223t-42.5 294zM441 1972h389l190 -371h-268z M479 758q0 -212 88.5 -335.5t247.5 -123.5q158 0 246 123.5t88 335.5q0 210 -87.5 329t-246.5 119q-160 0 -248 -118.5t-88 -329.5z" />
<glyph unicode="&#xd3;" horiz-adv-x="1628" d="M70 758q0 161 42.5 294t114 223t168 151.5t202 89.5t218.5 28q112 0 217.5 -28t202 -89.5t168 -151.5t114 -223t42.5 -294t-42.5 -294.5t-114 -223t-168 -151.5t-202 -90t-217.5 -28q-113 0 -218.5 28t-202 90t-168 152t-114 223t-42.5 294zM479 758q0 -212 88.5 -335.5 t247.5 -123.5q158 0 246 123.5t88 335.5q0 210 -87.5 329t-246.5 119q-160 0 -248 -118.5t-88 -329.5zM607 1601l190 371h389l-311 -371h-268z" />
<glyph unicode="&#xd4;" horiz-adv-x="1628" d="M70 758q0 161 42.5 294t114 223t168 151.5t202 89.5t218.5 28q112 0 217.5 -28t202 -89.5t168 -151.5t114 -223t42.5 -294t-42.5 -294.5t-114 -223t-168 -151.5t-202 -90t-217.5 -28q-113 0 -218.5 28t-202 90t-168 152t-114 223t-42.5 294zM415 1612l265 360h266 l264 -360h-227l-172 131l-168 -131h-228zM479 758q0 -212 88.5 -335.5t247.5 -123.5q158 0 246 123.5t88 335.5q0 210 -87.5 329t-246.5 119q-160 0 -248 -118.5t-88 -329.5z" />
<glyph unicode="&#xd5;" horiz-adv-x="1628" d="M70 758q0 161 42.5 294t114 223t168 151.5t202 89.5t218.5 28q112 0 217.5 -28t202 -89.5t168 -151.5t114 -223t42.5 -294t-42.5 -294.5t-114 -223t-168 -151.5t-202 -90t-217.5 -28q-113 0 -218.5 28t-202 90t-168 152t-114 223t-42.5 294zM383 1581q0 189 71.5 278 t198.5 89q55 0 101.5 -18t72 -39.5t57.5 -39.5t62 -18q84 0 84 110h213q0 -189 -71.5 -277.5t-199.5 -88.5q-55 0 -101.5 18t-72 39.5t-57 39.5t-61.5 18q-84 0 -84 -111h-213zM479 758q0 -212 88.5 -335.5t247.5 -123.5q158 0 246 123.5t88 335.5q0 210 -87.5 329 t-246.5 119q-160 0 -248 -118.5t-88 -329.5z" />
<glyph unicode="&#xd6;" horiz-adv-x="1628" d="M70 758q0 161 42.5 294t114 223t168 151.5t202 89.5t218.5 28q112 0 217.5 -28t202 -89.5t168 -151.5t114 -223t42.5 -294t-42.5 -294.5t-114 -223t-168 -151.5t-202 -90t-217.5 -28q-113 0 -218.5 28t-202 90t-168 152t-114 223t-42.5 294zM412 1587v358h327v-358h-327z M479 758q0 -212 88.5 -335.5t247.5 -123.5q158 0 246 123.5t88 335.5q0 210 -87.5 329t-246.5 119q-160 0 -248 -118.5t-88 -329.5zM876 1587v358h328v-358h-328z" />
<glyph unicode="&#xd7;" horiz-adv-x="1331" d="M117 354l311 312l-311 307l235 235l312 -307l307 307l235 -235l-305 -305l311 -308l-235 -235l-311 307l-314 -313z" />
<glyph unicode="&#xd8;" horiz-adv-x="1628" d="M49 82l162 180q-141 194 -141 496q0 161 42.5 294t114 223t168 151.5t202 89.5t218.5 28q242 0 428 -123l148 166l188 -153l-162 -183q142 -195 142 -493q0 -161 -42.5 -294.5t-114 -223t-168 -151.5t-202 -90t-217.5 -28q-244 0 -430 123l-147 -166zM469 758 q0 -99 23 -193l520 584q-81 63 -197 63q-164 0 -255 -120.5t-91 -333.5zM614 360q83 -67 201 -67q161 0 252.5 125.5t91.5 339.5q0 104 -22 190z" />
<glyph unicode="&#xd9;" horiz-adv-x="1492" d="M111 608v908h409v-906q0 -158 55 -230.5t177 -72.5t175.5 72.5t53.5 230.5v906h401v-908q0 -631 -634 -631q-637 0 -637 631zM373 1972h389l190 -371h-268z" />
<glyph unicode="&#xda;" horiz-adv-x="1492" d="M111 608v908h409v-906q0 -158 55 -230.5t177 -72.5t175.5 72.5t53.5 230.5v906h401v-908q0 -631 -634 -631q-637 0 -637 631zM518 1601l190 371h389l-311 -371h-268z" />
<glyph unicode="&#xdb;" horiz-adv-x="1492" d="M111 608v908h409v-906q0 -158 55 -230.5t177 -72.5t175.5 72.5t53.5 230.5v906h401v-908q0 -631 -634 -631q-637 0 -637 631zM348 1612l265 360h266l264 -360h-227l-172 131l-168 -131h-228z" />
<glyph unicode="&#xdc;" horiz-adv-x="1492" d="M111 608v908h409v-906q0 -158 55 -230.5t177 -72.5t175.5 72.5t53.5 230.5v906h401v-908q0 -631 -634 -631q-637 0 -637 631zM345 1587v358h327v-358h-327zM809 1587v358h328v-358h-328z" />
<glyph unicode="&#xdd;" horiz-adv-x="1476" d="M4 1516h422l313 -537l316 537h418l-531 -883v-633h-410v633zM531 1601l190 371h389l-311 -371h-268z" />
<glyph unicode="&#xde;" horiz-adv-x="1413" d="M141 0v1516h410v-205h149q75 0 139.5 -5.5t133.5 -20.5t124.5 -39.5t106.5 -65.5t85.5 -95t54.5 -130.5t20 -170.5q0 -526 -664 -526h-149v-258h-410zM551 578h156q134 0 187.5 51t53.5 145q0 95 -53.5 146t-187.5 51h-156v-393z" />
<glyph unicode="&#xdf;" horiz-adv-x="1458" d="M111 0v977q0 143 43.5 248t124.5 168t189 93t245 30q262 0 411.5 -105.5t149.5 -296.5q0 -125 -73.5 -203t-184.5 -116q60 -6 118 -23t112.5 -48.5t96 -74t66.5 -102.5t25 -129q0 -216 -125.5 -328.5t-339.5 -112.5q-158 0 -263 45t-159 103l172 211q39 -33 93.5 -53.5 t111.5 -20.5q66 0 101.5 39t35.5 100q0 45 -15.5 80t-46.5 57.5t-67 37.5t-89 23t-99 11.5t-109 5.5v267q81 0 135 13.5t82 41t38.5 60t10.5 79.5q0 56 -45.5 100t-130.5 44q-109 0 -162 -54t-53 -182v-985h-399z" />
<glyph unicode="&#xe0;" d="M35 295q0 187 171.5 294t506.5 122v14q0 92 -121 92q-172 0 -338 -119l-166 230q211 190 567 190q239 0 346 -112.5t107 -348.5v-391q0 -192 31 -266h-402q-24 77 -24 160q-140 -176 -365 -176q-61 0 -116 19t-99.5 55.5t-71 97.5t-26.5 139zM230 1583h389l190 -371h-268 zM430 362q0 -38 25 -57.5t65 -19.5q126 0 193 63v156q-283 -9 -283 -142z" />
<glyph unicode="&#xe1;" d="M35 295q0 187 171.5 294t506.5 122v14q0 92 -121 92q-172 0 -338 -119l-166 230q211 190 567 190q239 0 346 -112.5t107 -348.5v-391q0 -192 31 -266h-402q-24 77 -24 160q-140 -176 -365 -176q-61 0 -116 19t-99.5 55.5t-71 97.5t-26.5 139zM396 1212l190 371h389 l-311 -371h-268zM430 362q0 -38 25 -57.5t65 -19.5q126 0 193 63v156q-283 -9 -283 -142z" />
<glyph unicode="&#xe2;" d="M35 295q0 187 171.5 294t506.5 122v14q0 92 -121 92q-172 0 -338 -119l-166 230q211 190 567 190q239 0 346 -112.5t107 -348.5v-391q0 -192 31 -266h-402q-24 77 -24 160q-140 -176 -365 -176q-61 0 -116 19t-99.5 55.5t-71 97.5t-26.5 139zM204 1223l265 360h266 l264 -360h-227l-172 131l-168 -131h-228zM430 362q0 -38 25 -57.5t65 -19.5q126 0 193 63v156q-283 -9 -283 -142z" />
<glyph unicode="&#xe3;" d="M35 295q0 187 171.5 294t506.5 122v14q0 92 -121 92q-172 0 -338 -119l-166 230q211 190 567 190q239 0 346 -112.5t107 -348.5v-391q0 -192 31 -266h-402q-24 77 -24 160q-140 -176 -365 -176q-61 0 -116 19t-99.5 55.5t-71 97.5t-26.5 139zM172 1192q0 189 71.5 278 t198.5 89q55 0 101.5 -18t72 -39.5t57.5 -39.5t62 -18q84 0 84 110h213q0 -189 -71.5 -277.5t-199.5 -88.5q-55 0 -101.5 18t-72 39.5t-57 39.5t-61.5 18q-84 0 -84 -111h-213zM430 362q0 -38 25 -57.5t65 -19.5q126 0 193 63v156q-283 -9 -283 -142z" />
<glyph unicode="&#xe4;" d="M35 295q0 187 171.5 294t506.5 122v14q0 92 -121 92q-172 0 -338 -119l-166 230q211 190 567 190q239 0 346 -112.5t107 -348.5v-391q0 -192 31 -266h-402q-24 77 -24 160q-140 -176 -365 -176q-61 0 -116 19t-99.5 55.5t-71 97.5t-26.5 139zM201 1198v358h327v-358h-327 zM430 362q0 -38 25 -57.5t65 -19.5q126 0 193 63v156q-283 -9 -283 -142zM665 1198v358h328v-358h-328z" />
<glyph unicode="&#xe5;" d="M35 295q0 187 171.5 294t506.5 122v14q0 92 -121 92q-172 0 -338 -119l-166 230q211 190 567 190q239 0 346 -112.5t107 -348.5v-391q0 -192 31 -266h-402q-24 77 -24 160q-140 -176 -365 -176q-61 0 -116 19t-99.5 55.5t-71 97.5t-26.5 139zM362 1434q0 101 68.5 169 t171.5 68t171.5 -68t68.5 -169q0 -103 -68.5 -171.5t-171.5 -68.5t-171.5 68.5t-68.5 171.5zM430 362q0 -38 25 -57.5t65 -19.5q126 0 193 63v156q-283 -9 -283 -142zM514 1434q0 -41 25 -67t63 -26t63 26t25 67q0 38 -25 64t-63 26t-63 -26t-25 -64z" />
<glyph unicode="&#xe6;" horiz-adv-x="1837" d="M35 293q0 187 172 295t506 123v14q0 92 -121 92q-172 0 -338 -119l-166 230q211 190 567 190q109 0 189 -27t123 -73q53 47 135.5 73.5t157.5 26.5q54 0 101.5 -5.5t103 -22.5t100 -45t87.5 -76t72 -112t46.5 -156.5t17.5 -206.5v-62h-703q14 -101 68 -137.5t152 -36.5 q79 0 165 29t150 67l145 -245q-204 -132 -491 -132q-344 0 -477 218q-95 -117 -206 -165t-243 -48q-61 0 -116 19t-99.5 55.5t-71 97.5t-26.5 139zM430 356q0 -38 25 -57.5t65 -19.5q125 0 211 83q-10 52 -14 80q-4 40 -4 62q-145 -4 -214 -43.5t-69 -104.5zM1090 664h340 q-11 94 -53.5 130.5t-119.5 36.5q-134 0 -167 -167z" />
<glyph unicode="&#xe7;" horiz-adv-x="1155" d="M51 547q0 131 37.5 234t96 165t137.5 102t153.5 55t153.5 15q94 0 170.5 -19t128 -50t92 -77.5t65 -94t45.5 -107.5l-339 -106q-25 94 -64.5 128.5t-101.5 34.5q-168 0 -168 -282q0 -65 7 -113t24 -89.5t50.5 -63t82.5 -21.5q132 0 178 176l336 -112q-123 -319 -484 -336 l-16 -72q50 31 141 31q62 0 106 -39.5t44 -106.5q0 -97 -86.5 -158t-214.5 -61q-205 0 -324 78l68 113q44 -29 105.5 -45.5t117.5 -16.5q37 0 59.5 15t22.5 43q0 49 -58 49q-38 0 -77 -31l-93 45l52 164q-71 10 -133 33t-121 66t-100.5 103t-67 150t-25.5 201z" />
<glyph unicode="&#xe8;" d="M51 547q0 126 39 227.5t100 164t140 104.5t153 58.5t146 16.5q528 0 528 -624v-62h-702q14 -101 68 -139.5t151 -38.5q78 0 163.5 30.5t151.5 69.5l146 -245q-204 -132 -492 -132q-95 0 -177.5 16t-160.5 57t-133 104t-88 163.5t-33 229.5zM230 1583h389l190 -371h-268z M459 664h340q-12 94 -54 133t-118 39q-134 0 -168 -172z" />
<glyph unicode="&#xe9;" d="M51 547q0 126 39 227.5t100 164t140 104.5t153 58.5t146 16.5q528 0 528 -624v-62h-702q14 -101 68 -139.5t151 -38.5q78 0 163.5 30.5t151.5 69.5l146 -245q-204 -132 -492 -132q-95 0 -177.5 16t-160.5 57t-133 104t-88 163.5t-33 229.5zM396 1212l190 371h389 l-311 -371h-268zM459 664h340q-12 94 -54 133t-118 39q-134 0 -168 -172z" />
<glyph unicode="&#xea;" d="M51 547q0 126 39 227.5t100 164t140 104.5t153 58.5t146 16.5q528 0 528 -624v-62h-702q14 -101 68 -139.5t151 -38.5q78 0 163.5 30.5t151.5 69.5l146 -245q-204 -132 -492 -132q-95 0 -177.5 16t-160.5 57t-133 104t-88 163.5t-33 229.5zM204 1223l265 360h266 l264 -360h-227l-172 131l-168 -131h-228zM459 664h340q-12 94 -54 133t-118 39q-134 0 -168 -172z" />
<glyph unicode="&#xeb;" d="M51 547q0 126 39 227.5t100 164t140 104.5t153 58.5t146 16.5q528 0 528 -624v-62h-702q14 -101 68 -139.5t151 -38.5q78 0 163.5 30.5t151.5 69.5l146 -245q-204 -132 -492 -132q-95 0 -177.5 16t-160.5 57t-133 104t-88 163.5t-33 229.5zM201 1198v358h327v-358h-327z M459 664h340q-12 94 -54 133t-118 39q-134 0 -168 -172zM665 1198v358h328v-358h-328z" />
<glyph unicode="&#xec;" horiz-adv-x="647" d="M-110 1583h389l190 -371h-268zM121 0v1098h405v-1098h-405z" />
<glyph unicode="&#xed;" horiz-adv-x="647" d="M121 0v1098h405v-1098h-405zM170 1212l190 371h389l-311 -371h-268z" />
<glyph unicode="&#xee;" horiz-adv-x="647" d="M-74 1223l265 360h266l264 -360h-227l-172 131l-168 -131h-228zM121 0v1098h405v-1098h-405z" />
<glyph unicode="&#xef;" horiz-adv-x="647" d="M-77 1198v358h327v-358h-327zM121 0v1098h405v-1098h-405zM387 1198v358h328v-358h-328z" />
<glyph unicode="&#xf0;" horiz-adv-x="1269" d="M55 475q0 122 38.5 219t105 157.5t151 92t180.5 31.5q68 0 150 -24.5t137 -80.5q-22 111 -84 222l-127 -72l-114 199l104 59q-52 55 -107 104l191 211q112 -79 188 -157l150 86l115 -199l-119 -70q200 -309 200 -714q0 -176 -74 -304.5t-204 -193t-301 -64.5 q-260 0 -420 132.5t-160 365.5zM459 479q0 -114 47 -167.5t129 -53.5q83 0 129.5 54.5t46.5 168.5q0 113 -47.5 169.5t-128.5 56.5q-83 0 -129.5 -56.5t-46.5 -171.5z" />
<glyph unicode="&#xf1;" horiz-adv-x="1296" d="M113 0v1098h405v-170q20 32 49.5 62t73.5 60.5t107 49t135 18.5q141 0 228 -75.5t87 -241.5v-801h-405v668q0 59 -21.5 88.5t-71.5 29.5q-87 0 -182 -77v-709h-405zM217 1192q0 189 71.5 278t198.5 89q55 0 101.5 -18t72 -39.5t57.5 -39.5t62 -18q84 0 84 110h213 q0 -189 -71.5 -277.5t-199.5 -88.5q-55 0 -101.5 18t-72 39.5t-57 39.5t-61.5 18q-84 0 -84 -111h-213z" />
<glyph unicode="&#xf2;" horiz-adv-x="1273" d="M51 547q0 132 36 234.5t93 164.5t136.5 102t157 55t163.5 15q85 0 163 -15t157 -55t136.5 -102t93.5 -164.5t36 -234.5q0 -130 -36 -232t-93.5 -164t-136.5 -102.5t-157 -56t-163 -15.5t-163 15.5t-157 56t-136.5 102.5t-93.5 164t-36 232zM264 1583h389l190 -371h-268z M457 545q0 -287 180 -287t180 287q0 282 -180 282t-180 -282z" />
<glyph unicode="&#xf3;" horiz-adv-x="1273" d="M51 547q0 132 36 234.5t93 164.5t136.5 102t157 55t163.5 15q85 0 163 -15t157 -55t136.5 -102t93.5 -164.5t36 -234.5q0 -130 -36 -232t-93.5 -164t-136.5 -102.5t-157 -56t-163 -15.5t-163 15.5t-157 56t-136.5 102.5t-93.5 164t-36 232zM430 1212l190 371h389 l-311 -371h-268zM457 545q0 -287 180 -287t180 287q0 282 -180 282t-180 -282z" />
<glyph unicode="&#xf4;" horiz-adv-x="1273" d="M51 547q0 132 36 234.5t93 164.5t136.5 102t157 55t163.5 15q85 0 163 -15t157 -55t136.5 -102t93.5 -164.5t36 -234.5q0 -130 -36 -232t-93.5 -164t-136.5 -102.5t-157 -56t-163 -15.5t-163 15.5t-157 56t-136.5 102.5t-93.5 164t-36 232zM239 1223l265 360h266 l264 -360h-227l-172 131l-168 -131h-228zM457 545q0 -287 180 -287t180 287q0 282 -180 282t-180 -282z" />
<glyph unicode="&#xf5;" horiz-adv-x="1273" d="M51 547q0 132 36 234.5t93 164.5t136.5 102t157 55t163.5 15q85 0 163 -15t157 -55t136.5 -102t93.5 -164.5t36 -234.5q0 -130 -36 -232t-93.5 -164t-136.5 -102.5t-157 -56t-163 -15.5t-163 15.5t-157 56t-136.5 102.5t-93.5 164t-36 232zM207 1192q0 189 71.5 278 t198.5 89q55 0 101.5 -18t72 -39.5t57.5 -39.5t62 -18q84 0 84 110h213q0 -189 -71.5 -277.5t-199.5 -88.5q-55 0 -101.5 18t-72 39.5t-57 39.5t-61.5 18q-84 0 -84 -111h-213zM457 545q0 -287 180 -287t180 287q0 282 -180 282t-180 -282z" />
<glyph unicode="&#xf6;" horiz-adv-x="1273" d="M51 547q0 132 36 234.5t93 164.5t136.5 102t157 55t163.5 15q85 0 163 -15t157 -55t136.5 -102t93.5 -164.5t36 -234.5q0 -130 -36 -232t-93.5 -164t-136.5 -102.5t-157 -56t-163 -15.5t-163 15.5t-157 56t-136.5 102.5t-93.5 164t-36 232zM236 1198v358h327v-358h-327z M457 545q0 -287 180 -287t180 287q0 282 -180 282t-180 -282zM700 1198v358h328v-358h-328z" />
<glyph unicode="&#xf7;" horiz-adv-x="1331" d="M139 578v315h1053v-315h-1053zM506 186v271h319v-271h-319zM506 1010v270h319v-270h-319z" />
<glyph unicode="&#xf8;" horiz-adv-x="1273" d="M20 57l130 133q-99 144 -99 357q0 132 36 234.5t93 164.5t136.5 102t157 55t163.5 15q202 0 342 -82l125 129l149 -149l-120 -125q90 -137 90 -344q0 -130 -36 -232t-93.5 -164t-136.5 -102.5t-157 -56t-163 -15.5q-186 0 -326 74l-141 -143zM446 545q0 -33 3 -60 l303 310q-45 39 -115 39q-191 0 -191 -289zM528 287q44 -35 109 -35q190 0 190 293q0 31 -2 45z" />
<glyph unicode="&#xf9;" horiz-adv-x="1296" d="M100 295v803h406v-680q0 -59 21.5 -89t70.5 -30q86 0 182 78v721h406v-1098h-406v168q-20 -32 -49 -62.5t-73 -61t-107 -49t-135 -18.5q-141 0 -228.5 76t-87.5 242zM275 1583h389l190 -371h-268z" />
<glyph unicode="&#xfa;" horiz-adv-x="1296" d="M100 295v803h406v-680q0 -59 21.5 -89t70.5 -30q86 0 182 78v721h406v-1098h-406v168q-20 -32 -49 -62.5t-73 -61t-107 -49t-135 -18.5q-141 0 -228.5 76t-87.5 242zM420 1212l190 371h389l-311 -371h-268z" />
<glyph unicode="&#xfb;" horiz-adv-x="1296" d="M100 295v803h406v-680q0 -59 21.5 -89t70.5 -30q86 0 182 78v721h406v-1098h-406v168q-20 -32 -49 -62.5t-73 -61t-107 -49t-135 -18.5q-141 0 -228.5 76t-87.5 242zM243 1223l265 360h266l264 -360h-227l-172 131l-168 -131h-228z" />
<glyph unicode="&#xfc;" horiz-adv-x="1296" d="M100 295v803h406v-680q0 -59 21.5 -89t70.5 -30q86 0 182 78v721h406v-1098h-406v168q-20 -32 -49 -62.5t-73 -61t-107 -49t-135 -18.5q-141 0 -228.5 76t-87.5 242zM240 1198v358h327v-358h-327zM704 1198v358h328v-358h-328z" />
<glyph unicode="&#xfd;" horiz-adv-x="1175" d="M-29 -375l84 312q128 -33 232 -33q81 0 104 63l10 27l-417 1104h415l203 -627h4l203 627h391l-459 -1209q-58 -152 -151.5 -230.5t-253.5 -78.5q-208 0 -365 45zM381 1212l190 371h389l-311 -371h-268z" />
<glyph unicode="&#xfe;" horiz-adv-x="1302" d="M111 -410v1926h405v-588q128 190 326 190q190 0 299.5 -146t109.5 -423q0 -276 -110.5 -420.5t-302.5 -144.5q-205 0 -322 135v-529h-405zM516 354q42 -38 79.5 -53.5t88.5 -15.5q162 0 162 262q0 74 -12.5 123.5t-50.5 82.5t-103 33q-44 0 -90 -24.5t-74 -54.5v-353z " />
<glyph unicode="&#xff;" horiz-adv-x="1175" d="M-29 -375l84 312q128 -33 232 -33q81 0 104 63l10 27l-417 1104h415l203 -627h4l203 627h391l-459 -1209q-58 -152 -151.5 -230.5t-253.5 -78.5q-208 0 -365 45zM203 1198v358h327v-358h-327zM667 1198v358h328v-358h-328z" />
<glyph unicode="&#x152;" horiz-adv-x="2324" d="M66 758q0 161 42.5 294t114 223t168 151.5t202 89.5t218.5 28q209 0 377 -92v64h1038v-340h-672v-246h480v-320h-480v-280h707v-330h-1073v63q-168 -92 -377 -92q-113 0 -218.5 28t-202 90t-168 152t-114 223t-42.5 294zM475 758q0 -212 88.5 -335.5t247.5 -123.5 q158 0 246 123.5t88 335.5q0 210 -87.5 329t-246.5 119q-160 0 -248 -118.5t-88 -329.5z" />
<glyph unicode="&#x153;" horiz-adv-x="1957" d="M51 547q0 132 36 234.5t93 164.5t136.5 102t157 55t163.5 15q240 0 373 -168q145 168 370 168q54 0 101.5 -5.5t103 -22.5t100.5 -45t87.5 -76t72 -112t47 -156.5t17.5 -206.5v-62h-703q14 -101 67.5 -137.5t151.5 -36.5q79 0 166 29t150 67l145 -245 q-204 -132 -491 -132q-252 0 -391 154q-127 -154 -367 -154q-85 0 -163 15.5t-157 56t-136.5 102.5t-93.5 164t-36 232zM457 545q0 -132 40.5 -204.5t139.5 -72.5q96 0 138 70t42 207q0 130 -41 201t-139 71q-96 0 -138 -68.5t-42 -203.5zM1210 664h340q-11 94 -53 130.5 t-119 36.5q-135 0 -168 -167z" />
<glyph unicode="&#x178;" horiz-adv-x="1476" d="M4 1516h422l313 -537l316 537h418l-531 -883v-633h-410v633zM342 1587v358h327v-358h-327zM806 1587v358h328v-358h-328z" />
<glyph unicode="&#x2c6;" horiz-adv-x="1167" d="M186 1223l265 360h266l264 -360h-227l-172 131l-168 -131h-228z" />
<glyph unicode="&#x2dc;" horiz-adv-x="1085" d="M113 1192q0 189 71.5 278t198.5 89q55 0 101.5 -18t72 -39.5t57.5 -39.5t62 -18q84 0 84 110h213q0 -189 -71.5 -277.5t-199.5 -88.5q-55 0 -101.5 18t-72 39.5t-57 39.5t-61.5 18q-84 0 -84 -111h-213z" />
<glyph unicode="&#x2000;" horiz-adv-x="986" />
<glyph unicode="&#x2001;" horiz-adv-x="1972" />
<glyph unicode="&#x2002;" horiz-adv-x="986" />
<glyph unicode="&#x2003;" horiz-adv-x="1972" />
<glyph unicode="&#x2004;" horiz-adv-x="657" />
<glyph unicode="&#x2005;" horiz-adv-x="493" />
<glyph unicode="&#x2006;" horiz-adv-x="328" />
<glyph unicode="&#x2007;" horiz-adv-x="328" />
<glyph unicode="&#x2008;" horiz-adv-x="246" />
<glyph unicode="&#x2009;" horiz-adv-x="394" />
<glyph unicode="&#x200a;" horiz-adv-x="109" />
<glyph unicode="&#x2010;" horiz-adv-x="731" d="M82 512v262h567v-262h-567z" />
<glyph unicode="&#x2011;" horiz-adv-x="731" d="M82 512v262h567v-262h-567z" />
<glyph unicode="&#x2012;" horiz-adv-x="731" d="M82 512v262h567v-262h-567z" />
<glyph unicode="&#x2013;" horiz-adv-x="1413" d="M102 467v338h1209v-338h-1209z" />
<glyph unicode="&#x2014;" horiz-adv-x="1945" d="M102 465v340h1741v-340h-1741z" />
<glyph unicode="&#x2018;" horiz-adv-x="587" d="M92 887v336l182 293h189l-103 -261h136v-368h-404z" />
<glyph unicode="&#x2019;" horiz-adv-x="587" d="M92 1147v369h404v-336l-183 -293h-188l102 260h-135z" />
<glyph unicode="&#x201a;" horiz-adv-x="587" d="M92 0v369h404v-336l-183 -293h-188l102 260h-135z" />
<glyph unicode="&#x201c;" horiz-adv-x="1122" d="M92 887v336l182 293h189l-103 -261h136v-368h-404zM627 887v336l182 293h188l-102 -261h135v-368h-403z" />
<glyph unicode="&#x201d;" horiz-adv-x="1122" d="M92 1147v369h404v-336l-183 -293h-188l102 260h-135zM627 1147v369h403v-336l-182 -293h-189l103 260h-135z" />
<glyph unicode="&#x201e;" horiz-adv-x="1122" d="M92 0v369h404v-336l-183 -293h-188l102 260h-135zM627 0v369h403v-336l-182 -293h-189l103 260h-135z" />
<glyph unicode="&#x2022;" horiz-adv-x="948" d="M180 717q0 127 83.5 211t209.5 84q127 0 211 -84t84 -211q0 -126 -84 -209.5t-211 -83.5q-126 0 -209.5 83.5t-83.5 209.5z" />
<glyph unicode="&#x2026;" horiz-adv-x="1763" d="M82 0v369h424v-369h-424zM670 0v369h424v-369h-424zM1257 0v369h424v-369h-424z" />
<glyph unicode="&#x202f;" horiz-adv-x="394" />
<glyph unicode="&#x2039;" horiz-adv-x="804" d="M31 549l356 549h381l-338 -549l338 -549h-381z" />
<glyph unicode="&#x203a;" horiz-adv-x="804" d="M37 0l338 549l-338 549h381l356 -549l-356 -549h-381z" />
<glyph unicode="&#x205f;" horiz-adv-x="493" />
<glyph unicode="&#x20ac;" horiz-adv-x="1525" d="M43 475v207h201q-2 25 -2 76v37h-199v204h219q35 182 125 306t215 181.5t281 57.5q123 0 219 -27.5t163.5 -82t113.5 -125t79 -166.5l-342 -129q-38 112 -86.5 163.5t-138.5 51.5q-181 0 -234 -230h271v-204h-291v-37v-76h291v-207h-266q24 -97 79 -146.5t154 -49.5 q76 0 130 56t93 183l350 -110q-142 -437 -575 -437q-235 0 -399.5 125t-223.5 379h-227z" />
<glyph unicode="&#x2122;" horiz-adv-x="1935" d="M55 1296v220h719v-220h-223v-647h-270v647h-226zM883 649v867h370l117 -515l119 515h364v-867h-260v518l-125 -518h-223l-125 512v-512h-237z" />
<glyph unicode="&#x25fc;" horiz-adv-x="1095" d="M0 0v1096h1096v-1096h-1096z" />
<glyph unicode="&#xfb01;" horiz-adv-x="1431" d="M37 807v291h178v41q0 60 7.5 110.5t31 103.5t61 89.5t103.5 60t153 23.5q56 0 133.5 -7t94.5 -12v-272q-24 8 -86 8q-51 0 -71.5 -30.5t-20.5 -90.5v-24h186v-291h-186v-807h-406v807h-178zM895 0v1098h405v-1098h-405zM895 1182v334h405v-334h-405z" />
<glyph unicode="&#xfb02;" horiz-adv-x="1421" d="M37 807v291h178v41q0 60 7.5 110.5t31 103.5t61 89.5t103.5 60t153 23.5q56 0 133.5 -7t94.5 -12v-272q-24 8 -86 8q-51 0 -71.5 -30.5t-20.5 -90.5v-24h186v-291h-186v-807h-406v807h-178zM895 0v1516h405v-1516h-405z" />
</font>
</defs>
</svg>
